<?xml version="1.0" encoding="UTF-8"?><svg id="Layer_1" xmlns="http://www.w3.org/2000/svg" viewBox="0 0 30 30"><defs><style>.cls-1{fill:#fff;}</style></defs><g id="box_tg"><path id="headericon_tg" class="cls-1" d="M25.44,3.76L3.73,13.03s-1.03,.38-.95,1.09,.92,1.03,.92,1.03l5.46,2h0l13.11-9.07s.76-.5,.73,0c0,0,.14,.09-.27,.5s-10.3,10.1-10.3,10.1l-.71,6.6v.02c.19,.08,.41,.05,.58-.09l3.53-3.5,5.5,4.59c.67,.39,1.53,.16,1.91-.51,.05-.08,.09-.17,.11-.25l3.87-21.23c0-1.42-1.79-.56-1.79-.56Z"/></g></svg>