<?xml version="1.0" encoding="UTF-8"?><svg id="Layer_1" xmlns="http://www.w3.org/2000/svg" viewBox="0 0 30 30"><defs><style>.cls-1{fill:#fff;}</style></defs><g id="box_twitter"><g id="icon_twitter"><path id="Path_317" class="cls-1" d="M29.4,6.22c-1.08,.47-2.22,.78-3.39,.91,1.23-.72,2.15-1.86,2.6-3.21-1.16,.68-2.43,1.15-3.75,1.41-1.13-1.18-2.68-1.84-4.31-1.83-3.23-.03-5.88,2.57-5.91,5.81,0,.45,.05,.89,.15,1.32-4.73-.22-9.15-2.43-12.18-6.07-.52,.88-.8,1.89-.8,2.92,0,1.95,.99,3.77,2.63,4.83-.94-.03-1.85-.28-2.68-.73v.07c.02,2.79,2,5.17,4.74,5.69-.87,.23-1.78,.27-2.67,.1,.79,2.38,3.01,4,5.52,4.03-2.1,1.62-4.68,2.49-7.34,2.49-.47,0-.94-.03-1.41-.08,2.71,1.71,5.85,2.61,9.05,2.61,9.14,.15,16.66-7.14,16.81-16.28,0-.08,0-.16,0-.24,0-.25,0-.5-.02-.75,1.15-.82,2.15-1.84,2.95-3.01"/></g></g></svg>